<svg width="529" height="520" viewBox="0 0 529 520" fill="none" xmlns="http://www.w3.org/2000/svg">
<path d="M0 0H529V520H0V0Z" fill="url(#paint0_linear_184_663)"/>
<path d="M529 266.783C529 406.631 410.579 520 264.5 520C118.421 520 0 406.631 0 266.783C0 126.935 159.07 0 305.149 0C451.229 0 529 126.935 529 266.783Z" fill="#9BC8FF" fill-opacity="0.38"/>
<path d="M469.364 250.816C470.82 345.911 387.67 424.291 283.643 425.883C179.616 427.475 94.1063 351.677 92.6507 256.583C91.1951 161.488 203.783 52.3809 307.81 50.7886C411.836 49.1963 467.909 155.722 469.364 250.816Z" fill="#9BC8FF" fill-opacity="0.38"/>
<path d="M165.75 119.94C167.97 119.94 169.91 120.38 171.57 121.26C173.23 122.14 174.51 123.38 175.41 124.98C176.33 126.56 176.79 128.39 176.79 130.47C176.79 132.53 176.33 134.36 175.41 135.96C174.51 137.56 173.22 138.8 171.54 139.68C169.88 140.56 167.95 141 165.75 141H157.86V119.94H165.75ZM165.42 136.56C167.36 136.56 168.87 136.03 169.95 134.97C171.03 133.91 171.57 132.41 171.57 130.47C171.57 128.53 171.03 127.02 169.95 125.94C168.87 124.86 167.36 124.32 165.42 124.32H162.99V136.56H165.42ZM195.437 132.36C195.437 132.84 195.407 133.34 195.347 133.86H183.737C183.817 134.9 184.147 135.7 184.727 136.26C185.327 136.8 186.057 137.07 186.917 137.07C188.197 137.07 189.087 136.53 189.587 135.45H195.047C194.767 136.55 194.257 137.54 193.517 138.42C192.797 139.3 191.887 139.99 190.787 140.49C189.687 140.99 188.457 141.24 187.097 141.24C185.457 141.24 183.997 140.89 182.717 140.19C181.437 139.49 180.437 138.49 179.717 137.19C178.997 135.89 178.637 134.37 178.637 132.63C178.637 130.89 178.987 129.37 179.687 128.07C180.407 126.77 181.407 125.77 182.687 125.07C183.967 124.37 185.437 124.02 187.097 124.02C188.717 124.02 190.157 124.36 191.417 125.04C192.677 125.72 193.657 126.69 194.357 127.95C195.077 129.21 195.437 130.68 195.437 132.36ZM190.187 131.01C190.187 130.13 189.887 129.43 189.287 128.91C188.687 128.39 187.937 128.13 187.037 128.13C186.177 128.13 185.447 128.38 184.847 128.88C184.267 129.38 183.907 130.09 183.767 131.01H190.187ZM211.043 128.34V132.6H197.843V128.34H211.043ZM218.126 122.52C217.226 122.52 216.486 122.26 215.906 121.74C215.346 121.2 215.066 120.54 215.066 119.76C215.066 118.96 215.346 118.3 215.906 117.78C216.486 117.24 217.226 116.97 218.126 116.97C219.006 116.97 219.726 117.24 220.286 117.78C220.866 118.3 221.156 118.96 221.156 119.76C221.156 120.54 220.866 121.2 220.286 121.74C219.726 122.26 219.006 122.52 218.126 122.52ZM220.676 124.26V141H215.546V124.26H220.676ZM223.373 132.6C223.373 130.88 223.693 129.37 224.333 128.07C224.993 126.77 225.883 125.77 227.003 125.07C228.123 124.37 229.373 124.02 230.753 124.02C231.853 124.02 232.853 124.25 233.753 124.71C234.673 125.17 235.393 125.79 235.913 126.57V118.8H241.043V141H235.913V138.6C235.433 139.4 234.743 140.04 233.843 140.52C232.963 141 231.933 141.24 230.753 141.24C229.373 141.24 228.123 140.89 227.003 140.19C225.883 139.47 224.993 138.46 224.333 137.16C223.693 135.84 223.373 134.32 223.373 132.6ZM235.913 132.63C235.913 131.35 235.553 130.34 234.833 129.6C234.133 128.86 233.273 128.49 232.253 128.49C231.233 128.49 230.363 128.86 229.643 129.6C228.943 130.32 228.593 131.32 228.593 132.6C228.593 133.88 228.943 134.9 229.643 135.66C230.363 136.4 231.233 136.77 232.253 136.77C233.273 136.77 234.133 136.4 234.833 135.66C235.553 134.92 235.913 133.91 235.913 132.63ZM260.535 132.36C260.535 132.84 260.505 133.34 260.445 133.86H248.835C248.915 134.9 249.245 135.7 249.825 136.26C250.425 136.8 251.155 137.07 252.015 137.07C253.295 137.07 254.185 136.53 254.685 135.45H260.145C259.865 136.55 259.355 137.54 258.615 138.42C257.895 139.3 256.985 139.99 255.885 140.49C254.785 140.99 253.555 141.24 252.195 141.24C250.555 141.24 249.095 140.89 247.815 140.19C246.535 139.49 245.535 138.49 244.815 137.19C244.095 135.89 243.735 134.37 243.735 132.63C243.735 130.89 244.085 129.37 244.785 128.07C245.505 126.77 246.505 125.77 247.785 125.07C249.065 124.37 250.535 124.02 252.195 124.02C253.815 124.02 255.255 124.36 256.515 125.04C257.775 125.72 258.755 126.69 259.455 127.95C260.175 129.21 260.535 130.68 260.535 132.36ZM255.285 131.01C255.285 130.13 254.985 129.43 254.385 128.91C253.785 128.39 253.035 128.13 252.135 128.13C251.275 128.13 250.545 128.38 249.945 128.88C249.365 129.38 249.005 130.09 248.865 131.01H255.285ZM273.441 124.08C275.401 124.08 276.961 124.72 278.121 126C279.301 127.26 279.891 129 279.891 131.22V141H274.791V131.91C274.791 130.79 274.501 129.92 273.921 129.3C273.341 128.68 272.561 128.37 271.581 128.37C270.601 128.37 269.821 128.68 269.241 129.3C268.661 129.92 268.371 130.79 268.371 131.91V141H263.241V124.26H268.371V126.48C268.891 125.74 269.591 125.16 270.471 124.74C271.351 124.3 272.341 124.08 273.441 124.08ZM292.786 136.65V141H290.176C288.316 141 286.866 140.55 285.826 139.65C284.786 138.73 284.266 137.24 284.266 135.18V128.52H282.226V124.26H284.266V120.18H289.396V124.26H292.756V128.52H289.396V135.24C289.396 135.74 289.516 136.1 289.756 136.32C289.996 136.54 290.396 136.65 290.956 136.65H292.786ZM298.223 122.52C297.323 122.52 296.583 122.26 296.003 121.74C295.443 121.2 295.163 120.54 295.163 119.76C295.163 118.96 295.443 118.3 296.003 117.78C296.583 117.24 297.323 116.97 298.223 116.97C299.103 116.97 299.823 117.24 300.383 117.78C300.963 118.3 301.253 118.96 301.253 119.76C301.253 120.54 300.963 121.2 300.383 121.74C299.823 122.26 299.103 122.52 298.223 122.52ZM300.773 124.26V141H295.643V124.26H300.773ZM312.891 128.52H310.131V141H305.001V128.52H303.141V124.26H305.001V123.78C305.001 121.72 305.591 120.16 306.771 119.1C307.951 118.02 309.681 117.48 311.961 117.48C312.341 117.48 312.621 117.49 312.801 117.51V121.86C311.821 121.8 311.131 121.94 310.731 122.28C310.331 122.62 310.131 123.23 310.131 124.11V124.26H312.891V128.52ZM317.881 122.52C316.981 122.52 316.241 122.26 315.661 121.74C315.101 121.2 314.821 120.54 314.821 119.76C314.821 118.96 315.101 118.3 315.661 117.78C316.241 117.24 316.981 116.97 317.881 116.97C318.761 116.97 319.481 117.24 320.041 117.78C320.621 118.3 320.911 118.96 320.911 119.76C320.911 120.54 320.621 121.2 320.041 121.74C319.481 122.26 318.761 122.52 317.881 122.52ZM320.431 124.26V141H315.301V124.26H320.431ZM323.129 132.63C323.129 130.89 323.479 129.37 324.179 128.07C324.899 126.77 325.889 125.77 327.149 125.07C328.429 124.37 329.889 124.02 331.529 124.02C333.629 124.02 335.379 124.57 336.779 125.67C338.199 126.77 339.129 128.32 339.569 130.32H334.109C333.649 129.04 332.759 128.4 331.439 128.4C330.499 128.4 329.749 128.77 329.189 129.51C328.629 130.23 328.349 131.27 328.349 132.63C328.349 133.99 328.629 135.04 329.189 135.78C329.749 136.5 330.499 136.86 331.439 136.86C332.759 136.86 333.649 136.22 334.109 134.94H339.569C339.129 136.9 338.199 138.44 336.779 139.56C335.359 140.68 333.609 141.24 331.529 141.24C329.889 141.24 328.429 140.89 327.149 140.19C325.889 139.49 324.899 138.49 324.179 137.19C323.479 135.89 323.129 134.37 323.129 132.63ZM341.293 132.6C341.293 130.88 341.613 129.37 342.253 128.07C342.913 126.77 343.803 125.77 344.923 125.07C346.043 124.37 347.293 124.02 348.673 124.02C349.853 124.02 350.883 124.26 351.763 124.74C352.663 125.22 353.353 125.85 353.833 126.63V124.26H358.963V141H353.833V138.63C353.333 139.41 352.633 140.04 351.733 140.52C350.853 141 349.823 141.24 348.643 141.24C347.283 141.24 346.043 140.89 344.923 140.19C343.803 139.47 342.913 138.46 342.253 137.16C341.613 135.84 341.293 134.32 341.293 132.6ZM353.833 132.63C353.833 131.35 353.473 130.34 352.753 129.6C352.053 128.86 351.193 128.49 350.173 128.49C349.153 128.49 348.283 128.86 347.563 129.6C346.863 130.32 346.513 131.32 346.513 132.6C346.513 133.88 346.863 134.9 347.563 135.66C348.283 136.4 349.153 136.77 350.173 136.77C351.193 136.77 352.053 136.4 352.753 135.66C353.473 134.92 353.833 133.91 353.833 132.63ZM372.004 136.65V141H369.394C367.534 141 366.084 140.55 365.044 139.65C364.004 138.73 363.484 137.24 363.484 135.18V128.52H361.444V124.26H363.484V120.18H368.614V124.26H371.974V128.52H368.614V135.24C368.614 135.74 368.734 136.1 368.974 136.32C369.214 136.54 369.614 136.65 370.174 136.65H372.004ZM377.442 122.52C376.542 122.52 375.802 122.26 375.222 121.74C374.662 121.2 374.382 120.54 374.382 119.76C374.382 118.96 374.662 118.3 375.222 117.78C375.802 117.24 376.542 116.97 377.442 116.97C378.322 116.97 379.042 117.24 379.602 117.78C380.182 118.3 380.472 118.96 380.472 119.76C380.472 120.54 380.182 121.2 379.602 121.74C379.042 122.26 378.322 122.52 377.442 122.52ZM379.992 124.26V141H374.862V124.26H379.992ZM391.33 141.24C389.69 141.24 388.21 140.89 386.89 140.19C385.59 139.49 384.56 138.49 383.8 137.19C383.06 135.89 382.69 134.37 382.69 132.63C382.69 130.91 383.07 129.4 383.83 128.1C384.59 126.78 385.63 125.77 386.95 125.07C388.27 124.37 389.75 124.02 391.39 124.02C393.03 124.02 394.51 124.37 395.83 125.07C397.15 125.77 398.19 126.78 398.95 128.1C399.71 129.4 400.09 130.91 400.09 132.63C400.09 134.35 399.7 135.87 398.92 137.19C398.16 138.49 397.11 139.49 395.77 140.19C394.45 140.89 392.97 141.24 391.33 141.24ZM391.33 136.8C392.31 136.8 393.14 136.44 393.82 135.72C394.52 135 394.87 133.97 394.87 132.63C394.87 131.29 394.53 130.26 393.85 129.54C393.19 128.82 392.37 128.46 391.39 128.46C390.39 128.46 389.56 128.82 388.9 129.54C388.24 130.24 387.91 131.27 387.91 132.63C387.91 133.97 388.23 135 388.87 135.72C389.53 136.44 390.35 136.8 391.33 136.8ZM413.011 124.08C414.971 124.08 416.531 124.72 417.691 126C418.871 127.26 419.461 129 419.461 131.22V141H414.361V131.91C414.361 130.79 414.071 129.92 413.491 129.3C412.911 128.68 412.131 128.37 411.151 128.37C410.171 128.37 409.391 128.68 408.811 129.3C408.231 129.92 407.941 130.79 407.941 131.91V141H402.811V124.26H407.941V126.48C408.461 125.74 409.161 125.16 410.041 124.74C410.921 124.3 411.911 124.08 413.011 124.08ZM179.22 169.08C181.3 169.08 182.95 169.71 184.17 170.97C185.41 172.23 186.03 173.98 186.03 176.22V186H180.93V176.91C180.93 175.83 180.64 175 180.06 174.42C179.5 173.82 178.72 173.52 177.72 173.52C176.72 173.52 175.93 173.82 175.35 174.42C174.79 175 174.51 175.83 174.51 176.91V186H169.41V176.91C169.41 175.83 169.12 175 168.54 174.42C167.98 173.82 167.2 173.52 166.2 173.52C165.2 173.52 164.41 173.82 163.83 174.42C163.27 175 162.99 175.83 162.99 176.91V186H157.86V169.26H162.99V171.36C163.51 170.66 164.19 170.11 165.03 169.71C165.87 169.29 166.82 169.08 167.88 169.08C169.14 169.08 170.26 169.35 171.24 169.89C172.24 170.43 173.02 171.2 173.58 172.2C174.16 171.28 174.95 170.53 175.95 169.95C176.95 169.37 178.04 169.08 179.22 169.08ZM188.598 177.6C188.598 175.88 188.918 174.37 189.558 173.07C190.218 171.77 191.108 170.77 192.228 170.07C193.348 169.37 194.598 169.02 195.978 169.02C197.158 169.02 198.188 169.26 199.068 169.74C199.968 170.22 200.658 170.85 201.138 171.63V169.26H206.268V186H201.138V183.63C200.638 184.41 199.938 185.04 199.038 185.52C198.158 186 197.128 186.24 195.948 186.24C194.588 186.24 193.348 185.89 192.228 185.19C191.108 184.47 190.218 183.46 189.558 182.16C188.918 180.84 188.598 179.32 188.598 177.6ZM201.138 177.63C201.138 176.35 200.778 175.34 200.058 174.6C199.358 173.86 198.498 173.49 197.478 173.49C196.458 173.49 195.588 173.86 194.868 174.6C194.168 175.32 193.818 176.32 193.818 177.6C193.818 178.88 194.168 179.9 194.868 180.66C195.588 181.4 196.458 181.77 197.478 181.77C198.498 181.77 199.358 181.4 200.058 180.66C200.778 179.92 201.138 178.91 201.138 177.63ZM208.959 177.6C208.959 175.88 209.279 174.37 209.919 173.07C210.579 171.77 211.469 170.77 212.589 170.07C213.709 169.37 214.959 169.02 216.339 169.02C217.439 169.02 218.439 169.25 219.339 169.71C220.259 170.17 220.979 170.79 221.499 171.57V163.8H226.629V186H221.499V183.6C221.019 184.4 220.329 185.04 219.429 185.52C218.549 186 217.519 186.24 216.339 186.24C214.959 186.24 213.709 185.89 212.589 185.19C211.469 184.47 210.579 183.46 209.919 182.16C209.279 180.84 208.959 179.32 208.959 177.6ZM221.499 177.63C221.499 176.35 221.139 175.34 220.419 174.6C219.719 173.86 218.859 173.49 217.839 173.49C216.819 173.49 215.949 173.86 215.229 174.6C214.529 175.32 214.179 176.32 214.179 177.6C214.179 178.88 214.529 179.9 215.229 180.66C215.949 181.4 216.819 181.77 217.839 181.77C218.859 181.77 219.719 181.4 220.419 180.66C221.139 179.92 221.499 178.91 221.499 177.63ZM246.12 177.36C246.12 177.84 246.09 178.34 246.03 178.86H234.42C234.5 179.9 234.83 180.7 235.41 181.26C236.01 181.8 236.74 182.07 237.6 182.07C238.88 182.07 239.77 181.53 240.27 180.45H245.73C245.45 181.55 244.94 182.54 244.2 183.42C243.48 184.3 242.57 184.99 241.47 185.49C240.37 185.99 239.14 186.24 237.78 186.24C236.14 186.24 234.68 185.89 233.4 185.19C232.12 184.49 231.12 183.49 230.4 182.19C229.68 180.89 229.32 179.37 229.32 177.63C229.32 175.89 229.67 174.37 230.37 173.07C231.09 171.77 232.09 170.77 233.37 170.07C234.65 169.37 236.12 169.02 237.78 169.02C239.4 169.02 240.84 169.36 242.1 170.04C243.36 170.72 244.34 171.69 245.04 172.95C245.76 174.21 246.12 175.68 246.12 177.36ZM240.87 176.01C240.87 175.13 240.57 174.43 239.97 173.91C239.37 173.39 238.62 173.13 237.72 173.13C236.86 173.13 236.13 173.38 235.53 173.88C234.95 174.38 234.59 175.09 234.45 176.01H240.87ZM270.964 177.36C270.964 177.84 270.934 178.34 270.874 178.86H259.264C259.344 179.9 259.674 180.7 260.254 181.26C260.854 181.8 261.584 182.07 262.444 182.07C263.724 182.07 264.614 181.53 265.114 180.45H270.574C270.294 181.55 269.784 182.54 269.044 183.42C268.324 184.3 267.414 184.99 266.314 185.49C265.214 185.99 263.984 186.24 262.624 186.24C260.984 186.24 259.524 185.89 258.244 185.19C256.964 184.49 255.964 183.49 255.244 182.19C254.524 180.89 254.164 179.37 254.164 177.63C254.164 175.89 254.514 174.37 255.214 173.07C255.934 171.77 256.934 170.77 258.214 170.07C259.494 169.37 260.964 169.02 262.624 169.02C264.244 169.02 265.684 169.36 266.944 170.04C268.204 170.72 269.184 171.69 269.884 172.95C270.604 174.21 270.964 175.68 270.964 177.36ZM265.714 176.01C265.714 175.13 265.414 174.43 264.814 173.91C264.214 173.39 263.464 173.13 262.564 173.13C261.704 173.13 260.974 173.38 260.374 173.88C259.794 174.38 259.434 175.09 259.294 176.01H265.714ZM272.651 177.6C272.651 175.88 272.971 174.37 273.611 173.07C274.271 171.77 275.161 170.77 276.281 170.07C277.401 169.37 278.651 169.02 280.031 169.02C281.211 169.02 282.241 169.26 283.121 169.74C284.021 170.22 284.711 170.85 285.191 171.63V169.26H290.321V186H285.191V183.63C284.691 184.41 283.991 185.04 283.091 185.52C282.211 186 281.181 186.24 280.001 186.24C278.641 186.24 277.401 185.89 276.281 185.19C275.161 184.47 274.271 183.46 273.611 182.16C272.971 180.84 272.651 179.32 272.651 177.6ZM285.191 177.63C285.191 176.35 284.831 175.34 284.111 174.6C283.411 173.86 282.551 173.49 281.531 173.49C280.511 173.49 279.641 173.86 278.921 174.6C278.221 175.32 277.871 176.32 277.871 177.6C277.871 178.88 278.221 179.9 278.921 180.66C279.641 181.4 280.511 181.77 281.531 181.77C282.551 181.77 283.411 181.4 284.111 180.66C284.831 179.92 285.191 178.91 285.191 177.63ZM300.842 186.24C299.382 186.24 298.082 185.99 296.942 185.49C295.802 184.99 294.902 184.31 294.242 183.45C293.582 182.57 293.212 181.59 293.132 180.51H298.202C298.262 181.09 298.532 181.56 299.012 181.92C299.492 182.28 300.082 182.46 300.782 182.46C301.422 182.46 301.912 182.34 302.252 182.1C302.612 181.84 302.792 181.51 302.792 181.11C302.792 180.63 302.542 180.28 302.042 180.06C301.542 179.82 300.732 179.56 299.612 179.28C298.412 179 297.412 178.71 296.612 178.41C295.812 178.09 295.122 177.6 294.542 176.94C293.962 176.26 293.672 175.35 293.672 174.21C293.672 173.25 293.932 172.38 294.452 171.6C294.992 170.8 295.772 170.17 296.792 169.71C297.832 169.25 299.062 169.02 300.482 169.02C302.582 169.02 304.232 169.54 305.432 170.58C306.652 171.62 307.352 173 307.532 174.72H302.792C302.712 174.14 302.452 173.68 302.012 173.34C301.592 173 301.032 172.83 300.332 172.83C299.732 172.83 299.272 172.95 298.952 173.19C298.632 173.41 298.472 173.72 298.472 174.12C298.472 174.6 298.722 174.96 299.222 175.2C299.742 175.44 300.542 175.68 301.622 175.92C302.862 176.24 303.872 176.56 304.652 176.88C305.432 177.18 306.112 177.68 306.692 178.38C307.292 179.06 307.602 179.98 307.622 181.14C307.622 182.12 307.342 183 306.782 183.78C306.242 184.54 305.452 185.14 304.412 185.58C303.392 186.02 302.202 186.24 300.842 186.24ZM327.86 169.26L317.36 193.95H311.84L315.68 185.43L308.87 169.26H314.6L318.47 179.73L322.31 169.26H327.86ZM342.823 164.19L342.223 178.56H337.873L337.273 164.19H342.823ZM340.123 186.24C339.223 186.24 338.483 185.98 337.903 185.46C337.343 184.92 337.063 184.26 337.063 183.48C337.063 182.68 337.343 182.01 337.903 181.47C338.483 180.93 339.223 180.66 340.123 180.66C341.003 180.66 341.723 180.93 342.283 181.47C342.863 182.01 343.153 182.68 343.153 183.48C343.153 184.26 342.863 184.92 342.283 185.46C341.723 185.98 341.003 186.24 340.123 186.24Z" fill="#FDFDFD"/>
<g clip-path="url(#clip0_184_663)">
<path d="M439.994 420.032C439.94 424.528 439.487 429.017 438.64 433.47C438.61 433.627 438.578 433.783 438.548 433.939L380.738 433.704C380.568 433.549 380.401 433.392 380.239 433.233C379.699 432.706 379.193 432.165 378.729 431.605C376.497 428.907 375.475 425.748 376.499 423.568L376.518 423.534C376.739 423.057 377.087 422.616 377.542 422.237C379.877 420.323 384.597 420.642 388.881 422.187C385.039 419.124 381.98 415.259 381.747 411.809C381.519 408.444 383.935 406.041 386.556 403.998C386.642 403.93 386.728 403.865 386.814 403.799C386.855 403.765 386.9 403.733 386.941 403.699C388.986 402.143 391.369 400.608 394.819 400.794C398.603 400.998 402.798 403.306 405.74 405.995C408.681 408.683 410.636 411.737 412.617 414.717C414.601 417.695 416.747 420.749 419.931 423.294C415.619 419.322 412.142 414.803 410.858 410.408C409.574 406.013 410.704 401.792 414.547 399.722C415.714 399.113 417.064 398.716 418.484 398.565C418.65 398.545 418.818 398.528 418.989 398.514C422.546 398.219 426.794 399.115 430.407 401.257C434.387 403.615 437.146 407.111 438.519 410.43C439.892 413.749 440.038 416.944 439.994 420.032Z" fill="#F2F2F2"/>
<path d="M402.17 433.791L401.065 433.787C400.714 433.627 400.361 433.469 400.007 433.313C399.788 433.212 399.566 433.115 399.344 433.016C395.677 431.385 391.987 429.821 388.275 428.323C384.565 426.824 380.837 425.394 377.091 424.033C376.992 424.001 376.911 423.945 376.862 423.875C376.813 423.804 376.8 423.724 376.825 423.647C376.829 423.637 376.835 423.627 376.843 423.619C376.895 423.547 377.012 423.517 377.182 423.578C377.642 423.746 378.104 423.914 378.564 424.086C382.321 425.47 386.061 426.923 389.786 428.446C393.508 429.968 397.208 431.557 400.888 433.213C400.965 433.247 401.043 433.283 401.12 433.318C401.471 433.476 401.819 433.633 402.17 433.791Z" fill="white"/>
<path d="M416.424 433.849L415.74 433.847C415.586 433.689 415.435 433.532 415.281 433.375C411.658 429.676 408.037 425.976 404.416 422.277C398.486 416.22 392.559 410.164 386.633 404.107C386.597 404.075 386.571 404.038 386.556 403.998C386.505 403.864 386.64 403.785 386.814 403.799C386.887 403.806 386.957 403.825 387.019 403.854C387.081 403.883 387.134 403.921 387.175 403.966C390.499 407.363 393.823 410.758 397.145 414.152C403.044 420.178 408.942 426.204 414.839 432.229C415.214 432.611 415.589 432.995 415.964 433.378C416.118 433.535 416.272 433.692 416.424 433.849Z" fill="white"/>
<path d="M431.652 430.958C431.618 431.797 431.541 432.623 431.442 433.441C431.422 433.597 431.403 433.754 431.384 433.91L430.667 433.907C430.688 433.751 430.71 433.594 430.73 433.438C430.881 432.256 430.989 431.061 431.003 429.834C431.022 426.43 430.567 423.034 429.644 419.698C428.663 416.106 427.255 412.582 425.434 409.168C423.524 405.567 421.221 402.083 418.547 398.75C418.496 398.695 418.474 398.63 418.484 398.565C418.513 398.416 418.785 398.372 418.989 398.514C419.029 398.542 419.064 398.574 419.092 398.609C419.422 399.023 419.747 399.439 420.066 399.855C422.641 403.207 424.846 406.703 426.658 410.31C428.385 413.736 429.698 417.264 430.583 420.856C431.412 424.188 431.77 427.573 431.652 430.958Z" fill="white"/>
<path d="M326.953 426.551C326.924 428.9 326.688 431.245 326.245 433.573C326.23 433.654 326.213 433.736 326.197 433.818L295.987 433.695C295.898 433.614 295.811 433.532 295.726 433.449C295.444 433.173 295.18 432.891 294.937 432.598C293.771 431.188 293.237 429.537 293.772 428.398L293.781 428.38C293.897 428.131 294.079 427.901 294.317 427.703C295.537 426.703 298.004 426.869 300.242 427.677C298.234 426.076 296.636 424.056 296.514 422.253C296.395 420.495 297.658 419.239 299.027 418.171C299.072 418.136 299.117 418.101 299.162 418.067C299.184 418.05 299.207 418.033 299.229 418.015C300.297 417.202 301.543 416.4 303.345 416.497C305.323 416.603 307.515 417.81 309.052 419.215C310.589 420.62 311.611 422.215 312.646 423.772C313.683 425.329 314.804 426.925 316.468 428.255C314.215 426.179 312.398 423.818 311.727 421.521C311.056 419.224 311.647 417.018 313.655 415.937C314.264 415.618 314.97 415.411 315.712 415.332C315.799 415.322 315.887 415.313 315.976 415.305C317.835 415.151 320.055 415.62 321.943 416.739C323.964 418.003 325.437 419.669 326.182 421.533C326.899 423.267 326.976 424.936 326.953 426.551Z" fill="#F2F2F2"/>
<path d="M307.187 433.741L306.609 433.738C306.426 433.655 306.242 433.572 306.056 433.491C305.942 433.438 305.826 433.387 305.71 433.335C303.794 432.483 301.865 431.666 299.925 430.883C297.987 430.099 296.039 429.352 294.081 428.641C294.029 428.624 293.987 428.595 293.961 428.558C293.936 428.522 293.929 428.479 293.942 428.439C293.944 428.434 293.947 428.429 293.951 428.424C293.979 428.387 294.04 428.372 294.129 428.404C294.369 428.491 294.611 428.579 294.851 428.669C296.814 429.392 298.769 430.151 300.715 430.947C302.66 431.742 304.594 432.573 306.517 433.438C306.557 433.456 306.598 433.475 306.638 433.493C306.822 433.575 307.004 433.658 307.187 433.741Z" fill="white"/>
<path d="M314.636 433.771L314.278 433.769C314.198 433.687 314.119 433.605 314.038 433.523C312.145 431.59 310.253 429.657 308.36 427.723C305.262 424.558 302.164 421.393 299.067 418.228C299.049 418.211 299.035 418.192 299.027 418.171C299.001 418.101 299.071 418.06 299.162 418.067C299.2 418.071 299.237 418.081 299.269 418.096C299.302 418.111 299.33 418.131 299.351 418.155C301.088 419.93 302.825 421.704 304.561 423.477C307.644 426.627 310.726 429.775 313.807 432.924C314.003 433.124 314.199 433.325 314.395 433.524C314.476 433.607 314.556 433.689 314.636 433.771Z" fill="white"/>
<path d="M322.594 432.26C322.576 432.699 322.536 433.13 322.484 433.557C322.474 433.639 322.464 433.721 322.453 433.803L322.079 433.801C322.09 433.719 322.102 433.638 322.112 433.556C322.191 432.938 322.247 432.314 322.255 431.672C322.265 429.894 322.027 428.119 321.544 426.376C321.032 424.499 320.296 422.657 319.344 420.873C318.346 418.991 317.143 417.171 315.745 415.429C315.719 415.4 315.707 415.366 315.712 415.332C315.727 415.254 315.87 415.231 315.976 415.305C315.997 415.32 316.015 415.337 316.03 415.355C316.203 415.571 316.372 415.789 316.539 416.006C317.885 417.758 319.037 419.585 319.984 421.47C320.886 423.26 321.572 425.104 322.035 426.981C322.468 428.722 322.655 430.491 322.594 432.26Z" fill="white"/>
<path d="M152.522 340.938H95.9045C94.3391 340.936 92.8383 340.483 91.7314 339.677C90.6244 338.87 90.0018 337.777 90 336.637V287.108C90.0018 285.968 90.6244 284.875 91.7314 284.069C92.8383 283.263 94.3391 282.809 95.9045 282.808H152.522C154.087 282.809 155.588 283.263 156.695 284.069C157.802 284.875 158.425 285.968 158.426 287.108V336.637C158.425 337.777 157.802 338.87 156.695 339.677C155.588 340.483 154.087 340.936 152.522 340.938ZM95.9045 283.357C94.5388 283.358 93.2295 283.753 92.2639 284.457C91.2982 285.16 90.755 286.114 90.7535 287.108V336.637C90.755 337.632 91.2982 338.585 92.2639 339.289C93.2295 339.992 94.5388 340.388 95.9045 340.389H152.522C153.888 340.388 155.197 339.992 156.162 339.289C157.128 338.585 157.671 337.632 157.673 336.637V287.108C157.671 286.114 157.128 285.16 156.162 284.457C155.197 283.753 153.888 283.358 152.522 283.357H95.9045Z" fill="#3F3D56"/>
<path d="M137.448 286.879H110.978C109.73 286.878 108.533 286.517 107.65 285.874C106.767 285.231 106.27 284.359 106.269 283.45V282.715C106.27 281.806 106.767 280.934 107.65 280.291C108.533 279.648 109.73 279.286 110.978 279.285H137.448C138.697 279.286 139.894 279.648 140.776 280.291C141.659 280.934 142.156 281.806 142.157 282.715V283.45C142.156 284.359 141.659 285.231 140.776 285.874C139.894 286.517 138.697 286.878 137.448 286.879Z" fill="#CCCCCC"/>
<path d="M150.177 313.825H98.2497C97.8975 313.825 97.5486 313.775 97.2231 313.677C96.8976 313.579 96.6017 313.435 96.3525 313.254C96.1033 313.072 95.9056 312.857 95.7707 312.62C95.6358 312.383 95.5664 312.129 95.5664 311.873C95.5664 311.616 95.6358 311.362 95.7707 311.125C95.9056 310.888 96.1033 310.673 96.3525 310.492C96.6017 310.31 96.8976 310.167 97.2231 310.069C97.5486 309.971 97.8975 309.921 98.2497 309.921H150.177C150.887 309.921 151.568 310.127 152.07 310.493C152.572 310.859 152.854 311.355 152.854 311.873C152.854 312.39 152.572 312.886 152.07 313.252C151.568 313.618 150.887 313.824 150.177 313.825Z" fill="#6C63FF"/>
<path d="M150.177 322.12H98.2497C97.8975 322.121 97.5486 322.07 97.2231 321.972C96.8976 321.874 96.6017 321.731 96.3525 321.549C96.1033 321.368 95.9056 321.153 95.7707 320.916C95.6358 320.679 95.5664 320.425 95.5664 320.168C95.5664 319.912 95.6358 319.658 95.7707 319.421C95.9056 319.184 96.1033 318.969 96.3525 318.787C96.6017 318.606 96.8976 318.462 97.2231 318.364C97.5486 318.266 97.8975 318.216 98.2497 318.216H150.177C150.887 318.217 151.568 318.423 152.07 318.789C152.572 319.155 152.854 319.651 152.854 320.168C152.854 320.686 152.572 321.182 152.07 321.548C151.568 321.914 150.887 322.12 150.177 322.12Z" fill="#6C63FF"/>
<path d="M136.274 305.529H112.153C111.8 305.529 111.451 305.479 111.126 305.381C110.8 305.283 110.505 305.139 110.255 304.958C110.006 304.777 109.808 304.562 109.674 304.325C109.539 304.088 109.469 303.834 109.469 303.577C109.469 303.321 109.539 303.067 109.674 302.83C109.808 302.593 110.006 302.377 110.255 302.196C110.505 302.015 110.8 301.871 111.126 301.773C111.451 301.675 111.8 301.625 112.153 301.625H136.274C136.626 301.625 136.975 301.675 137.3 301.773C137.626 301.871 137.922 302.015 138.171 302.196C138.42 302.377 138.618 302.593 138.753 302.83C138.887 303.067 138.957 303.321 138.957 303.577C138.957 303.834 138.887 304.088 138.753 304.325C138.618 304.562 138.42 304.777 138.171 304.958C137.922 305.139 137.626 305.283 137.3 305.381C136.975 305.479 136.626 305.529 136.274 305.529Z" fill="#6C63FF"/>
<path d="M272.792 291.652H216.174C214.609 291.651 213.108 291.197 212.001 290.391C210.894 289.585 210.272 288.492 210.27 287.352V237.823C210.272 236.683 210.894 235.59 212.001 234.783C213.108 233.977 214.609 233.524 216.174 233.523H272.792C274.357 233.524 275.858 233.977 276.965 234.783C278.072 235.59 278.695 236.683 278.696 237.823V287.352C278.695 288.492 278.072 289.585 276.965 290.391C275.858 291.197 274.357 291.651 272.792 291.652ZM216.174 234.071C214.809 234.072 213.5 234.468 212.534 235.171C211.568 235.875 211.025 236.828 211.024 237.823V287.352C211.025 288.347 211.568 289.3 212.534 290.004C213.5 290.707 214.809 291.102 216.174 291.103H272.792C274.157 291.102 275.467 290.707 276.432 290.004C277.398 289.3 277.941 288.347 277.943 287.352V237.823C277.941 236.828 277.398 235.875 276.432 235.171C275.467 234.468 274.157 234.072 272.792 234.071H216.174Z" fill="#3F3D56"/>
<path d="M257.718 237.594H231.248C230 237.593 228.803 237.231 227.92 236.588C227.037 235.945 226.54 235.074 226.539 234.164V233.43C226.54 232.52 227.037 231.649 227.92 231.006C228.803 230.363 230 230.001 231.248 230H257.718C258.966 230.001 260.163 230.363 261.046 231.006C261.929 231.649 262.426 232.52 262.427 233.43V234.164C262.426 235.074 261.929 235.945 261.046 236.588C260.163 237.231 258.966 237.593 257.718 237.594Z" fill="#CCCCCC"/>
<path d="M270.447 264.539H218.52C218.168 264.54 217.819 264.489 217.493 264.391C217.168 264.293 216.872 264.15 216.623 263.968C216.373 263.787 216.176 263.572 216.041 263.335C215.906 263.098 215.836 262.844 215.836 262.587C215.836 262.331 215.906 262.077 216.041 261.84C216.176 261.603 216.373 261.388 216.623 261.206C216.872 261.025 217.168 260.881 217.493 260.783C217.819 260.685 218.168 260.635 218.52 260.635H270.447C270.799 260.635 271.148 260.685 271.474 260.783C271.799 260.881 272.095 261.025 272.344 261.206C272.593 261.388 272.791 261.603 272.926 261.84C273.061 262.077 273.13 262.331 273.13 262.587C273.13 262.844 273.061 263.098 272.926 263.335C272.791 263.572 272.593 263.787 272.344 263.968C272.095 264.15 271.799 264.293 271.474 264.391C271.148 264.489 270.799 264.54 270.447 264.539Z" fill="#6C63FF"/>
<path d="M270.447 272.835H218.519C218.168 272.835 217.819 272.784 217.494 272.686C217.169 272.588 216.873 272.444 216.624 272.263C216.375 272.082 216.178 271.867 216.043 271.63C215.909 271.393 215.839 271.139 215.839 270.883C215.839 270.627 215.909 270.373 216.043 270.136C216.178 269.899 216.375 269.684 216.624 269.503C216.873 269.321 217.169 269.178 217.494 269.08C217.819 268.982 218.168 268.931 218.519 268.931H270.447C270.799 268.931 271.147 268.982 271.472 269.08C271.797 269.178 272.093 269.321 272.342 269.503C272.591 269.684 272.788 269.899 272.923 270.136C273.057 270.373 273.127 270.627 273.127 270.883C273.127 271.139 273.057 271.393 272.923 271.63C272.788 271.867 272.591 272.082 272.342 272.263C272.093 272.444 271.797 272.588 271.472 272.686C271.147 272.784 270.799 272.835 270.447 272.835Z" fill="#6C63FF"/>
<path d="M256.544 256.244H232.423C232.07 256.244 231.721 256.194 231.396 256.096C231.07 255.998 230.775 255.854 230.525 255.673C230.276 255.492 230.078 255.276 229.944 255.039C229.809 254.802 229.739 254.548 229.739 254.292C229.739 254.035 229.809 253.781 229.944 253.544C230.078 253.307 230.276 253.092 230.525 252.911C230.775 252.73 231.07 252.586 231.396 252.488C231.721 252.39 232.07 252.34 232.423 252.34H256.544C257.254 252.34 257.936 252.546 258.439 252.912C258.941 253.278 259.224 253.774 259.224 254.292C259.224 254.81 258.941 255.306 258.439 255.672C257.936 256.038 257.254 256.244 256.544 256.244Z" fill="#6C63FF"/>
<path d="M388.302 375.103L338.588 394.835C337.212 395.379 335.597 395.504 334.095 395.182C332.593 394.86 331.328 394.117 330.578 393.117L298.034 349.627C297.286 348.625 297.115 347.448 297.557 346.355C297.999 345.261 299.019 344.34 300.393 343.793L350.107 324.061C351.482 323.517 353.098 323.392 354.6 323.714C356.102 324.036 357.366 324.779 358.117 325.779L390.661 369.27C391.408 370.271 391.58 371.448 391.138 372.542C390.695 373.635 389.676 374.557 388.302 375.103ZM300.754 344.275C299.555 344.752 298.665 345.555 298.28 346.51C297.894 347.464 298.043 348.49 298.696 349.364L331.239 392.854C331.894 393.727 332.998 394.375 334.308 394.656C335.618 394.937 337.027 394.828 338.227 394.353L387.941 374.621C389.14 374.144 390.029 373.341 390.415 372.387C390.801 371.433 390.651 370.406 389.999 369.532L357.455 326.042C356.801 325.169 355.697 324.521 354.387 324.24C353.077 323.959 351.667 324.068 350.468 324.543L300.754 344.275Z" fill="#3F3D56"/>
<path d="M339.546 332.89L316.304 342.115C315.207 342.549 313.918 342.648 312.721 342.391C311.523 342.135 310.514 341.542 309.915 340.744L309.433 340.099C308.836 339.3 308.7 338.362 309.052 337.489C309.405 336.617 310.219 335.882 311.314 335.446L334.556 326.222C335.653 325.787 336.942 325.688 338.14 325.945C339.337 326.202 340.346 326.794 340.945 327.592L341.428 328.237C342.024 329.036 342.161 329.974 341.808 330.847C341.455 331.719 340.642 332.454 339.546 332.89Z" fill="#CCCCCC"/>
<path d="M368.428 352.113L322.832 370.211C322.523 370.333 322.184 370.41 321.834 370.438C321.484 370.465 321.13 370.441 320.793 370.369C320.455 370.297 320.14 370.176 319.866 370.015C319.592 369.854 319.365 369.656 319.196 369.431C319.028 369.206 318.922 368.959 318.885 368.704C318.847 368.449 318.879 368.191 318.979 367.945C319.078 367.699 319.243 367.47 319.464 367.271C319.685 367.071 319.958 366.905 320.267 366.783L365.863 348.686C366.487 348.438 367.221 348.381 367.903 348.527C368.585 348.673 369.159 349.011 369.499 349.466C369.839 349.92 369.917 350.454 369.716 350.951C369.516 351.448 369.052 351.866 368.428 352.113Z" fill="#CCCCCC"/>
<path d="M373.879 359.398L328.283 377.495C327.974 377.617 327.635 377.694 327.285 377.722C326.935 377.749 326.581 377.725 326.243 377.653C325.906 377.581 325.591 377.461 325.317 377.3C325.043 377.139 324.816 376.94 324.647 376.715C324.479 376.49 324.373 376.243 324.335 375.988C324.298 375.733 324.33 375.475 324.43 375.229C324.529 374.983 324.694 374.754 324.915 374.555C325.136 374.355 325.409 374.189 325.718 374.067L371.314 355.97C371.623 355.847 371.962 355.77 372.312 355.743C372.662 355.716 373.016 355.739 373.353 355.811C373.691 355.884 374.006 356.004 374.28 356.165C374.553 356.326 374.781 356.525 374.949 356.75C375.118 356.975 375.224 357.222 375.261 357.477C375.298 357.731 375.267 357.989 375.167 358.235C375.068 358.481 374.903 358.71 374.682 358.91C374.461 359.109 374.188 359.275 373.879 359.398Z" fill="#CCCCCC"/>
<path d="M350.769 349.675L329.589 358.081C329.28 358.204 328.941 358.281 328.591 358.308C328.241 358.335 327.887 358.312 327.549 358.24C327.212 358.167 326.897 358.047 326.623 357.886C326.349 357.725 326.122 357.526 325.953 357.301C325.785 357.076 325.679 356.829 325.642 356.574C325.604 356.319 325.636 356.062 325.736 355.816C325.835 355.57 326 355.341 326.221 355.141C326.442 354.942 326.715 354.776 327.024 354.653L348.204 346.247C348.513 346.124 348.852 346.047 349.202 346.02C349.552 345.993 349.906 346.016 350.244 346.088C350.581 346.161 350.896 346.281 351.17 346.442C351.444 346.603 351.671 346.802 351.84 347.027C352.008 347.252 352.114 347.499 352.152 347.754C352.189 348.009 352.157 348.266 352.057 348.512C351.958 348.758 351.793 348.987 351.572 349.187C351.351 349.386 351.078 349.552 350.769 349.675Z" fill="#CCCCCC"/>
<path d="M195.19 274.854L168.709 286.051L169.088 286.526L195.569 275.328L195.19 274.854Z" fill="#3F3D56"/>
<path d="M196.315 277.859L200.055 273.114L192.542 273.126L196.315 277.859Z" fill="#3F3D56"/>
<path d="M273.562 348.515C273.502 348.515 273.443 348.505 273.39 348.485L171.613 310.409C171.524 310.376 171.458 310.318 171.427 310.249C171.397 310.18 171.405 310.104 171.451 310.04C171.496 309.975 171.575 309.926 171.67 309.904C171.765 309.882 171.868 309.888 171.957 309.921L273.734 347.997C273.81 348.025 273.87 348.071 273.905 348.127C273.94 348.183 273.948 348.246 273.928 348.306C273.908 348.365 273.861 348.419 273.795 348.457C273.729 348.495 273.646 348.515 273.562 348.515Z" fill="#3F3D56"/>
<path d="M270.868 350.309L278.372 350.04L274.301 345.441L270.868 350.309Z" fill="#3F3D56"/>
<path d="M378.576 379.997C378.046 379.805 377.581 379.531 377.212 379.194C376.844 378.857 376.581 378.465 376.443 378.046C376.305 377.627 376.295 377.191 376.413 376.769C376.532 376.347 376.776 375.948 377.128 375.602L374.102 354.053H380.642L383.047 375.095C383.807 375.565 384.302 376.221 384.441 376.939C384.58 377.658 384.353 378.388 383.802 378.993C383.25 379.597 382.414 380.033 381.451 380.218C380.488 380.403 379.465 380.325 378.576 379.997V379.997Z" fill="#A0616A"/>
<path d="M372.571 342.16C377.681 342.16 381.824 339.143 381.824 335.421C381.824 331.699 377.681 328.682 372.571 328.682C367.46 328.682 363.317 331.699 363.317 335.421C363.317 339.143 367.46 342.16 372.571 342.16Z" fill="#A0616A"/>
<path d="M370.465 366.574L356.655 364.378C356.292 364.319 355.965 364.176 355.725 363.97C355.485 363.763 355.344 363.505 355.324 363.235C355.164 360.99 355.05 355.185 357.423 349.765C357.882 348.725 358.622 347.764 359.6 346.937C360.577 346.109 361.773 345.433 363.116 344.948C364.459 344.464 365.921 344.18 367.417 344.114C368.913 344.048 370.412 344.201 371.825 344.565C373.316 344.946 374.68 345.553 375.827 346.346C376.973 347.138 377.877 348.098 378.478 349.163C379.079 350.227 379.365 351.373 379.315 352.523C379.266 353.674 378.884 354.804 378.192 355.839C375.13 360.419 373.201 363.736 372.46 365.697C372.345 366.002 372.074 366.262 371.703 366.425C371.331 366.588 370.889 366.642 370.465 366.574Z" fill="#6C63FF"/>
<path d="M357.455 430.596L352.836 430.595L350.639 417.62L357.456 417.621L357.455 430.596Z" fill="#A0616A"/>
<path d="M349.537 429.634H358.445V433.719H343.929C343.929 432.635 344.52 431.596 345.571 430.83C346.623 430.064 348.05 429.634 349.537 429.634Z" fill="#2F2E41"/>
<path d="M403.641 426.236L399.593 427.856L389.084 417.258L395.058 414.866L403.641 426.236Z" fill="#A0616A"/>
<path d="M396.067 428.172L403.872 425.046L406.574 428.626L393.854 433.719C393.137 432.77 392.968 431.652 393.383 430.612C393.798 429.571 394.763 428.694 396.067 428.172Z" fill="#2F2E41"/>
<path d="M357.539 423.39L350.429 422.992C350.031 422.97 349.656 422.847 349.371 422.643C349.086 422.44 348.909 422.17 348.871 421.88C347.858 414.182 343.412 375.174 355.437 363.163L355.47 363.13L355.524 363.116C355.632 363.087 366.356 360.302 372.508 365.406C372.702 365.568 372.833 365.764 372.89 365.975C372.948 366.185 372.928 366.403 372.835 366.607L372.6 367.119C372.533 367.265 372.515 367.42 372.547 367.571C372.58 367.723 372.662 367.866 372.787 367.99C374.494 369.671 380.241 376.146 382.5 388.878C382.514 388.959 382.543 389.038 382.585 389.114L399.261 418.949C399.346 419.102 399.389 419.265 399.386 419.429C399.384 419.594 399.336 419.756 399.246 419.907C399.156 420.058 399.025 420.194 398.862 420.308C398.698 420.421 398.506 420.51 398.295 420.568L393.047 422.024C392.665 422.129 392.244 422.13 391.861 422.028C391.478 421.925 391.158 421.726 390.959 421.466L366.886 389.658C366.79 389.531 366.641 389.43 366.462 389.368C366.282 389.307 366.08 389.288 365.885 389.315C365.69 389.342 365.512 389.413 365.376 389.518C365.239 389.623 365.152 389.757 365.127 389.901L359.35 422.318C359.298 422.615 359.098 422.888 358.789 423.086C358.48 423.284 358.082 423.393 357.671 423.394C357.627 423.394 357.583 423.393 357.539 423.39Z" fill="#2F2E41"/>
<path d="M336.598 343.249C336.644 343.397 336.674 343.548 336.688 343.699L352.872 350.499L356.806 348.849L360.999 352.848L354.425 356.26C353.894 356.536 353.254 356.679 352.602 356.667C351.95 356.656 351.321 356.49 350.809 356.196L334.121 346.608C333.367 346.811 332.547 346.842 331.769 346.697C330.991 346.553 330.292 346.239 329.765 345.798C329.237 345.356 328.907 344.809 328.818 344.228C328.728 343.646 328.884 343.059 329.264 342.544C329.644 342.029 330.23 341.61 330.945 341.343C331.66 341.077 332.469 340.975 333.265 341.051C334.062 341.128 334.807 341.379 335.402 341.772C335.997 342.164 336.415 342.68 336.598 343.249V343.249Z" fill="#A0616A"/>
<path d="M353.094 349.819C353.143 349.645 353.242 349.481 353.386 349.338C353.53 349.195 353.715 349.076 353.927 348.989L361.354 345.965C362.341 345.41 363.589 345.163 364.826 345.278C366.062 345.392 367.185 345.86 367.95 346.577C368.714 347.294 369.057 348.202 368.903 349.103C368.749 350.004 368.111 350.823 367.128 351.382L361.207 355.86C361.038 355.988 360.833 356.088 360.606 356.153C360.379 356.218 360.136 356.246 359.893 356.236C359.65 356.227 359.412 356.179 359.196 356.096C358.981 356.014 358.792 355.898 358.643 355.758L353.413 350.821C353.264 350.68 353.158 350.518 353.103 350.345C353.048 350.172 353.045 349.993 353.094 349.819Z" fill="#6C63FF"/>
<path d="M372.318 359.143C372.129 359.032 371.975 358.892 371.866 358.733C371.758 358.574 371.698 358.4 371.69 358.222L371.424 352.028C371.202 351.135 371.476 350.214 372.185 349.468C372.894 348.721 373.981 348.21 375.207 348.046C376.433 347.882 377.698 348.079 378.725 348.593C379.752 349.108 380.457 349.898 380.686 350.79L383.417 356.68C383.495 356.848 383.522 357.027 383.497 357.203C383.472 357.38 383.395 357.55 383.271 357.703C383.147 357.856 382.979 357.987 382.779 358.089C382.579 358.19 382.352 358.259 382.112 358.29L373.686 359.398C373.446 359.43 373.2 359.424 372.964 359.38C372.728 359.335 372.508 359.255 372.318 359.143Z" fill="#6C63FF"/>
<path d="M371.106 333.871C368.728 335.056 365.605 336.275 363.176 335.013C361.581 334.184 361.079 332.649 361.725 331.302C362.889 328.879 366.084 327.813 369.14 326.995C373.113 325.933 377.438 325.087 381.539 325.848C385.64 326.609 389.264 329.501 388.524 332.536C387.929 334.976 384.768 337.007 385.217 339.464C385.668 341.936 389.487 343.238 392.858 343.68C396.229 344.122 400.001 344.264 402.423 346.027C405.514 348.277 404.742 352.298 401.834 354.673C398.926 357.048 394.538 358.124 390.285 358.856C384.651 359.826 378.558 360.336 373.207 358.726C367.856 357.117 363.692 352.785 365.242 348.723C365.897 347.007 367.439 345.557 368.93 344.145C370.42 342.733 371.93 341.257 372.498 339.525C372.972 338.081 372.622 336.405 371.307 335.322C371.068 335.133 370.918 334.893 370.878 334.637C370.837 334.382 370.909 334.123 371.083 333.899L371.106 333.871Z" fill="#2F2E41"/>
<path d="M438.982 434H295.443C295.343 434 295.247 433.971 295.176 433.92C295.106 433.868 295.066 433.798 295.066 433.726C295.066 433.653 295.106 433.583 295.176 433.532C295.247 433.48 295.343 433.451 295.443 433.451H438.982C439.082 433.451 439.178 433.48 439.248 433.532C439.319 433.583 439.359 433.653 439.359 433.726C439.359 433.798 439.319 433.868 439.248 433.92C439.178 433.971 439.082 434 438.982 434Z" fill="#3F3D56"/>
</g>
<defs>
<linearGradient id="paint0_linear_184_663" x1="264.5" y1="-3.72529e-06" x2="264.5" y2="520" gradientUnits="userSpaceOnUse">
<stop stop-color="#6185FE"/>
<stop offset="1" stop-color="#8AC4FF" stop-opacity="0.79"/>
</linearGradient>
<clipPath id="clip0_184_663">
<rect width="350" height="204" fill="white" transform="translate(90 230)"/>
</clipPath>
</defs>
</svg>
